<svg xmlns="http://www.w3.org/2000/svg" viewBox="0 0 36 36"><path fill="#3E721D" d="M15.3 12h5.4l-.85 22q-1.85 2.2-3.7 0z"/><path fill="#5C913B" d="M15.3 12h1.7l-.6 20q-.5 1.1-1.1 0z"/><path fill="#3E721D" d="M16.6 12.4C10 12 4.5 11.4 3.2 9.8 7.5 10.4 12.6 11.2 16.6 12.4z"/><path fill="#3E721D" d="M19.4 12.4C26 12 31.5 11.4 32.8 9.8 28.5 10.4 23.4 11.2 19.4 12.4z"/><path fill="#5C913B" d="M16.9 11.6C9.5 10.8 4.8 7.5 4.5 3.5 9 5 13.8 8 16.9 11.6z"/><path fill="#5C913B" d="M19.1 11.6C26.5 10.8 31.2 7.5 31.5 3.5 27 5 22.2 8 19.1 11.6z"/><path fill="#77B255" d="M18 12C13.5 8 13.5 2.5 18 1.2 22.5 2.5 22.5 8 18 12z"/><path fill="#A6D388" d="M18 9.5C16.3 7 16.3 3.5 18 2.4 19.7 3.5 19.7 7 18 9.5z"/><g><circle cx="13.6" cy="15.5" r="3" fill="#5C913B"/><circle cx="13.3" cy="15.2" r="2.6" fill="#77B255"/><path d="M13.6 13.4C12.5 14.9 12.5 16.1 13.6 17.6" stroke="#4f8045" stroke-width=".55" fill="none" stroke-linecap="round" opacity=".5"/><ellipse cx="12.7" cy="14.6" rx="1.1" ry=".9" fill="#A6D388"/></g><g><circle cx="22.4" cy="18" r="3" fill="#5C913B"/><circle cx="22.1" cy="17.7" r="2.6" fill="#77B255"/><path d="M22.4 15.9C21.3 17.4 21.3 18.6 22.4 20.1" stroke="#4f8045" stroke-width=".55" fill="none" stroke-linecap="round" opacity=".5"/><ellipse cx="21.5" cy="17.1" rx="1.1" ry=".9" fill="#A6D388"/></g><g><circle cx="13.6" cy="20.5" r="3" fill="#5C913B"/><circle cx="13.3" cy="20.2" r="2.6" fill="#77B255"/><path d="M13.6 18.4C12.5 19.9 12.5 21.1 13.6 22.6" stroke="#4f8045" stroke-width=".55" fill="none" stroke-linecap="round" opacity=".5"/><ellipse cx="12.7" cy="19.6" rx="1.1" ry=".9" fill="#A6D388"/></g><g><circle cx="22.4" cy="23" r="3" fill="#5C913B"/><circle cx="22.1" cy="22.7" r="2.6" fill="#77B255"/><path d="M22.4 20.9C21.3 22.4 21.3 23.6 22.4 25.1" stroke="#4f8045" stroke-width=".55" fill="none" stroke-linecap="round" opacity=".5"/><ellipse cx="21.5" cy="22.1" rx="1.1" ry=".9" fill="#A6D388"/></g><g><circle cx="13.6" cy="25.5" r="3" fill="#5C913B"/><circle cx="13.3" cy="25.2" r="2.6" fill="#77B255"/><path d="M13.6 23.4C12.5 24.9 12.5 26.1 13.6 27.6" stroke="#4f8045" stroke-width=".55" fill="none" stroke-linecap="round" opacity=".5"/><ellipse cx="12.7" cy="24.6" rx="1.1" ry=".9" fill="#A6D388"/></g><g><circle cx="22.4" cy="28" r="3" fill="#5C913B"/><circle cx="22.1" cy="27.7" r="2.6" fill="#77B255"/><path d="M22.4 25.9C21.3 27.4 21.3 28.6 22.4 30.1" stroke="#4f8045" stroke-width=".55" fill="none" stroke-linecap="round" opacity=".5"/><ellipse cx="21.5" cy="27.1" rx="1.1" ry=".9" fill="#A6D388"/></g><g><circle cx="13.6" cy="30" r="2.8" fill="#5C913B"/><circle cx="13.3" cy="29.7" r="2.45" fill="#77B255"/><path d="M13.6 28.1C12.6 29.45 12.6 30.55 13.6 31.9" stroke="#4f8045" stroke-width=".55" fill="none" stroke-linecap="round" opacity=".5"/><ellipse cx="12.7" cy="29.2" rx="1" ry=".85" fill="#A6D388"/></g><g><circle cx="22.4" cy="32.3" r="2.8" fill="#5C913B"/><circle cx="22.1" cy="32" r="2.45" fill="#77B255"/><path d="M22.4 30.4C21.4 31.75 21.4 32.85 22.4 34.2" stroke="#4f8045" stroke-width=".55" fill="none" stroke-linecap="round" opacity=".5"/><ellipse cx="21.5" cy="31.5" rx="1" ry=".85" fill="#A6D388"/></g></svg>
