<svg xmlns="http://www.w3.org/2000/svg" viewBox="0 0 36 36"><path fill="#3E721D" d="M15.7 8h4.6l-.7 24q-1.6 2-3.2 0z"/><path fill="#5C913B" d="M15.7 8h1.5l-.5 22q-.45 1-.9 0z"/><path fill="#4f8045" d="M16.9 9C11.3 9.5 8.2 8.4 8.4 6.4 11.2 6.9 14.1 7.7 16.9 9z"/><path fill="#4f8045" d="M19.1 9C24.7 9.5 27.8 8.4 27.6 6.4 24.8 6.9 21.9 7.7 19.1 9z"/><path fill="#5C913B" d="M17 8.7C11.7 8 9.3 4.9 10 2.7 12.8 3.6 15.5 5.8 17 8.7z"/><path fill="#5C913B" d="M19 8.7C24.3 8 26.7 4.9 26 2.7 23.2 3.6 20.5 5.8 19 8.7z"/><path fill="#77B255" d="M18 9C14.2 6 14.2 1.6 18 .2 21.8 1.6 21.8 6 18 9z"/><path fill="#A6D388" d="M18 6.9C16.3 5 16.3 2.3 18 1.2 19.7 2.3 19.7 5 18 6.9z"/><g><circle cx="14.8" cy="11.6" r="2.7" fill="#5C913B"/><circle cx="14.5" cy="11.3" r="2.35" fill="#77B255"/><path d="M14.8 9.7C13.8 11.05 13.8 12.15 14.8 13.5" stroke="#4f8045" stroke-width=".5" fill="none" stroke-linecap="round" opacity=".5"/><ellipse cx="14" cy="10.8" rx="1" ry=".85" fill="#A6D388"/></g><g><circle cx="21.2" cy="14" r="2.7" fill="#5C913B"/><circle cx="20.9" cy="13.7" r="2.35" fill="#77B255"/><path d="M21.2 12.1C20.2 13.45 20.2 14.55 21.2 15.9" stroke="#4f8045" stroke-width=".5" fill="none" stroke-linecap="round" opacity=".5"/><ellipse cx="20.4" cy="13.2" rx="1" ry=".85" fill="#A6D388"/></g><g><circle cx="14.8" cy="16.6" r="2.7" fill="#5C913B"/><circle cx="14.5" cy="16.3" r="2.35" fill="#77B255"/><path d="M14.8 14.7C13.8 16.05 13.8 17.15 14.8 18.5" stroke="#4f8045" stroke-width=".5" fill="none" stroke-linecap="round" opacity=".5"/><ellipse cx="14" cy="15.8" rx="1" ry=".85" fill="#A6D388"/></g><g><circle cx="21.2" cy="19" r="2.7" fill="#5C913B"/><circle cx="20.9" cy="18.7" r="2.35" fill="#77B255"/><path d="M21.2 17.1C20.2 18.45 20.2 19.55 21.2 20.9" stroke="#4f8045" stroke-width=".5" fill="none" stroke-linecap="round" opacity=".5"/><ellipse cx="20.4" cy="18.2" rx="1" ry=".85" fill="#A6D388"/></g><g><circle cx="14.8" cy="21.6" r="2.7" fill="#5C913B"/><circle cx="14.5" cy="21.3" r="2.35" fill="#77B255"/><path d="M14.8 19.7C13.8 21.05 13.8 22.15 14.8 23.5" stroke="#4f8045" stroke-width=".5" fill="none" stroke-linecap="round" opacity=".5"/><ellipse cx="14" cy="20.8" rx="1" ry=".85" fill="#A6D388"/></g><g><circle cx="21.2" cy="24" r="2.7" fill="#5C913B"/><circle cx="20.9" cy="23.7" r="2.35" fill="#77B255"/><path d="M21.2 22.1C20.2 23.45 20.2 24.55 21.2 25.9" stroke="#4f8045" stroke-width=".5" fill="none" stroke-linecap="round" opacity=".5"/><ellipse cx="20.4" cy="23.2" rx="1" ry=".85" fill="#A6D388"/></g><g><circle cx="14.8" cy="26.6" r="2.6" fill="#5C913B"/><circle cx="14.5" cy="26.3" r="2.25" fill="#77B255"/><path d="M14.8 24.8C13.85 26.05 13.85 27.05 14.8 28.3" stroke="#4f8045" stroke-width=".5" fill="none" stroke-linecap="round" opacity=".5"/><ellipse cx="14" cy="25.8" rx=".95" ry=".8" fill="#A6D388"/></g><g><circle cx="21.2" cy="29" r="2.6" fill="#5C913B"/><circle cx="20.9" cy="28.7" r="2.25" fill="#77B255"/><path d="M21.2 27.2C20.25 28.45 20.25 29.45 21.2 30.7" stroke="#4f8045" stroke-width=".5" fill="none" stroke-linecap="round" opacity=".5"/><ellipse cx="20.4" cy="28.2" rx=".95" ry=".8" fill="#A6D388"/></g></svg>
