<svg xmlns="http://www.w3.org/2000/svg" viewBox="0 0 36 36">
  <path fill="#F4900C" d="M32.664 8.519C29.364 5.134 23.42 4.75 18 4.75S6.636 5.134 3.336 8.519C.582 11.344 0 15.751 0 19.791c0 5.263 1.982 11.311 6.357 14.244C9.364 36.051 13.95 35.871 18 35.871s8.636.18 11.643-1.836C34.018 31.101 36 25.054 36 19.791c0-4.04-.582-8.447-3.336-11.272z"/>
  <path fill="#D67D08" d="M12.9 6.1C9.7 9.6 8.4 14.5 8.4 19.8c0 4.8 1.2 9.8 3.9 13.4-.9-.1-1.8-.3-2.6-.6C7.2 29 6.1 24.5 6.1 19.8c0-5 1.2-9.9 4-13.1.9-.3 1.8-.5 2.8-.6z"/>
  <path fill="#D67D08" d="M23.1 6.1c3.2 3.5 4.5 8.4 4.5 13.7 0 4.8-1.2 9.8-3.9 13.4.9-.1 1.8-.3 2.6-.6 2.5-3.6 3.6-8.1 3.6-12.8 0-5-1.2-9.9-4-13.1-.9-.3-1.8-.5-2.8-.6z"/>
  <path fill="#3F7123" d="M20.783 5.444c.069.42-.222.764-.647.764h-4.451c-.426 0-.717-.344-.647-.764l.745-4.472c.07-.421.476-.764.902-.764h2.451c.426 0 .832.344.901.764l.746 4.472z"/>
</svg>
