<svg xmlns="http://www.w3.org/2000/svg" viewBox="0 0 36 36"><g transform="rotate(45 18 18)"><rect x="11.5" y="1" width="13" height="3.6" rx="1.8" fill="#A0683A"/><rect x="11.5" y="1" width="13" height="1.7" rx="0.85" fill="#BE8453"/><rect x="16.3" y="3.5" width="3.4" height="14" fill="#A0683A"/><rect x="16.3" y="3.5" width="1.5" height="14" fill="#BE8453"/><path d="M11.5 19.5 c0 -1.4 1.1 -2.5 2.5 -2.5 h8 c1.4 0 2.5 1.1 2.5 2.5 v3 c0 5 -3.5 9.3 -6.5 11.5 c-3 -2.2 -6.5 -6.5 -6.5 -11.5 z" fill="#99AAB5"/><path d="M11.5 19.5 c0 -1.4 1.1 -2.5 2.5 -2.5 h2.5 c-1.4 0 -2.5 1.1 -2.5 2.5 v3 c0 5 2 9.3 4.5 11.5 c-3 -2.2 -7 -6.5 -7 -11.5 z" fill="#CCD6DD"/><rect x="16.3" y="16" width="3.4" height="4.5" rx="1" fill="#7E8C98"/></g></svg>
