<svg xmlns="http://www.w3.org/2000/svg" viewBox="0 0 36 36">
  <path fill="#5DADEC" d="M5.2 3.2c1.1 1.3 1 2.7-.1 3.4-1.1.7-2.5.2-2.7-1.1-.2-1.1 1.6-3.7 2.8-2.3z"/>
  <path fill="#5DADEC" d="M9.4 1.6c.9 1 .8 2.2-.1 2.8-.9.6-2 .1-2.2-.9-.1-.9 1.3-3 2.3-1.9z"/>
  <path fill="#55ACEE" d="M12.2 18.6 4.6 10.4a2.1 2.1 0 0 1 3-2.9l8.2 7.6z"/>
  <ellipse cx="6" cy="8.9" rx="3" ry="2" fill="#3B88C3" transform="rotate(43 6 8.9)"/>
  <path fill="#55ACEE" d="M11.5 15.5h13a2.3 2.3 0 0 1 2.3 2.3v11a4 4 0 0 1-4 4h-9.6a4 4 0 0 1-4-4v-11a2.3 2.3 0 0 1 2.3-2.3z"/>
  <ellipse cx="18" cy="15.7" rx="7.6" ry="2.4" fill="#3B88C3"/>
  <ellipse cx="18" cy="15.4" rx="6" ry="1.7" fill="#79c0f0"/>
  <path fill="none" stroke="#3B88C3" stroke-width="2.6" stroke-linecap="round" d="M26.5 19.5c5 .5 5 8.5-.3 9.5"/>
  <path fill="#3B88C3" d="M9.2 24.5h17.6v2.4H9.2z" opacity=".35"/>
</svg>
